# xmcd
#
# Track frame offsets: 
#        150
#        16080
#        34755
#        51975
#        68610
#        90600
#        107408
#        128145
#        143595
#        162120
#
# Disc length: 2412 seconds
#
# Revision: 3
# Processed by: cddbd v1.5.2PL0 Copyright (c) Steve Scherf et al.
# Submitted via: ExactAudioCopy v1.0b4
#
DISCID=74096a0a
DTITLE=Kavana - Instinct
DYEAR=1998
DGENRE=Ballad
TTITLE0=Special kind of something
TTITLE1=Funky love
TTITLE2=Will you wait for me
TTITLE3=Just the way it is
TTITLE4=Make believe
TTITLE5=If i fall
TTITLE6=Thank you
TTITLE7=Misunderstood
TTITLE8=I believe
TTITLE9=Good luck next time
EXTD=
EXTT0=
EXTT1=
EXTT2=
EXTT3=
EXTT4=
EXTT5=
EXTT6=
EXTT7=
EXTT8=
EXTT9=
PLAYORDER=
